<svg width="790" height="201" viewBox="0 0 790 201" fill="none" xmlns="http://www.w3.org/2000/svg">
<rect x="1.5" y="1.5" width="787" height="198" rx="9.5" fill="black" stroke="black" stroke-width="3"/>
<path d="M17.4469 19C17.1054 19 16.8897 19.3684 17.0604 19.6649L17.375 20.2084C18.5615 22.257 19.5143 24.593 19.5143 27.0683V173.794C19.5143 176.251 18.5615 178.407 17.375 180.456L17.0604 181C16.8897 181.296 17.1009 181.664 17.4424 181.664H143.972C155.293 181.664 164.474 172.487 164.474 161.17V19H17.4469Z" fill="white"/>
<path d="M768.619 180.451C767.76 178.969 766.785 177.271 766.785 175.712V131.777H747.734C758.367 131.017 766.758 122.163 766.758 111.341V26.1249C766.758 23.9326 767.558 22.0413 768.619 20.2129L768.933 19.6694C769.104 19.3729 768.893 19.0045 768.551 19.0045H621.609V108.313C621.609 111.435 619.092 113.973 615.969 114V19H471.036V174.787C471.036 177.01 470.043 178.695 469.027 180.451L468.713 180.995C468.542 181.292 468.753 181.66 469.095 181.66H496.99H616.063V128.282C638.988 159.131 674.304 179.239 716.594 181.66H768.556C768.897 181.66 769.113 181.292 768.938 180.995L768.623 180.451H768.619Z" fill="white"/>
<path d="M242.574 72.2886V19H170.106V174.701C170.106 176.894 169.112 178.673 168.083 180.451L167.769 180.995C167.598 181.292 167.809 181.66 168.151 181.66H198.716H315.043V59.5572C315.043 56.444 317.569 53.9192 320.683 53.9192V181.66H445.105C456.426 181.66 465.607 172.486 465.607 161.166V19H349.783C337.815 19 325.865 20.4151 314.306 23.5238C284.788 31.4663 260.075 48.744 242.579 72.2841L242.574 72.2886Z" fill="white"/>
</svg>
